<svg width="126" height="24" viewBox="0 0 126 24" fill="none" xmlns="http://www.w3.org/2000/svg">
<path d="M35.8244 2.05813C33.9507 2.05813 33.0131 3.30983 33.0131 5.41571C33.0131 7.60082 33.787 8.94923 35.8546 8.90759C36.2209 8.91509 36.5865 8.87302 36.94 8.78269C37.2085 8.69942 37.253 8.58795 37.253 8.32338V7.21134L38.7692 7.30804V9.71476C37.9522 10.1177 36.7763 10.2855 35.8244 10.2855C32.8093 10.2855 31.1538 8.69942 31.1538 5.52718C31.1538 1.90099 33.5343 0.685547 35.8244 0.685547C36.7889 0.687499 37.742 0.880186 38.6213 1.25096V3.61604L37.1037 3.71274V2.62757C37.1037 2.35897 37.0592 2.25287 36.7921 2.16826C36.4765 2.08988 36.1509 2.05282 35.8244 2.05813Z" fill="white"/>
<path fill-rule="evenodd" clip-rule="evenodd" d="M46.5893 8.93541C46.299 8.9217 46.2077 8.83668 46.2077 8.52406V3.23816C45.3368 2.93758 44.4193 2.77041 43.491 2.74316C40.7433 2.74316 39.4615 4.33373 39.4615 6.83476C39.4615 8.86548 40.3617 10.286 42.5142 10.286C43.3496 10.2864 44.1315 9.90379 44.6048 9.26312L44.6504 9.27683V10.0995H47.0769V8.96283L46.5893 8.93541ZM43.2611 3.9786C43.6629 3.97118 44.0627 4.03397 44.4397 4.16371L44.4353 7.84395C44.4353 8.45413 43.8563 9.07801 42.909 9.07801C41.6272 9.07801 41.3222 7.95639 41.3222 6.77717C41.3222 5.24282 41.8099 3.9786 43.2611 3.9786Z" fill="white"/>
<path d="M48.6809 4.61673C48.6809 4.29606 48.5994 4.1948 48.3406 4.17933L47.7692 4.13573V2.96277H50.0681V4.05556C50.4196 3.25355 51.173 2.74194 52.0005 2.74337C52.4538 2.73773 52.9019 2.84765 53.3076 3.06404V5.23555L52.0426 5.33682V4.66736C52.0426 4.49156 52.015 4.36076 51.9112 4.30309C51.7957 4.24783 51.6697 4.22276 51.5434 4.22996C50.809 4.22996 50.3059 4.85582 50.3059 5.70108V9.0765L51.4882 9.13557V10.286H47.8375V9.17917L48.2854 9.13557C48.5482 9.10603 48.6795 9.01883 48.6795 8.65457L48.6809 4.61673Z" fill="white"/>
<path d="M56.6132 1.37661V2.89429H58.4393L58.3068 4.09464H56.6132V7.85296C56.6132 8.72493 56.9432 8.98294 57.5064 8.98294C57.836 8.97159 58.1565 8.86767 58.434 8.68216L58.8462 9.78593C58.434 10.0853 57.7476 10.2854 57.1022 10.2854C54.9607 10.2854 54.974 8.91395 54.974 7.91366V4.08774H54L54.1325 3.04468C55.0933 2.95776 55.4219 2.1865 55.7108 1.37109L56.6132 1.37661Z" fill="white"/>
<path fill-rule="evenodd" clip-rule="evenodd" d="M60.8672 1.17321C61.2487 0.396077 61.8275 0.0559971 62.4226 0.0559971C62.7909 0.0559971 63.1758 0.164831 63.5421 0.268399C63.8746 0.362406 64.1917 0.452074 64.4672 0.452074C64.6969 0.452074 64.9562 0.282717 65.1388 0L65.9637 0.409735C65.6117 1.25925 65.1241 1.63894 64.392 1.63894C64.062 1.63894 63.6899 1.53306 63.3379 1.43292C63.0222 1.34309 62.7227 1.25789 62.4845 1.25789C62.0721 1.25789 61.9189 1.32754 61.6007 1.66762L60.8672 1.17321ZM66.2833 8.53069C66.2833 8.84209 66.3746 8.92676 66.6648 8.94042L67.1538 8.96774V10.1H64.7278V9.2805L64.6807 9.26684C64.2075 9.90499 63.4257 10.2861 62.5905 10.2857C60.4399 10.2857 59.5385 8.87077 59.5385 6.84804C59.5385 4.35685 60.8214 2.77254 63.5671 2.77254C64.4953 2.79969 65.4126 2.9662 66.2833 3.26559V8.53069ZM63.3359 4.00311C63.7376 3.99604 64.1372 4.05857 64.5142 4.18749L64.5113 7.85325C64.5113 8.46102 63.9309 9.08246 62.9853 9.08246C61.7023 9.08246 61.3974 7.96524 61.3974 6.79067C61.3974 5.26236 61.8864 4.00311 63.3359 4.00311Z" fill="white"/>
<path fill-rule="evenodd" clip-rule="evenodd" d="M74.0768 6.32401C74.0768 3.06832 72.0625 2.74316 71.0619 2.74316C69.6699 2.74316 67.8461 3.56426 67.8461 6.50708C67.8461 9.06873 69.0359 10.286 70.8466 10.286C72.63 10.286 74.0768 9.0414 74.0768 6.32401ZM70.981 3.98915C72.0625 3.98915 72.4278 4.966 72.4278 6.5508C72.4278 8.01811 72.009 9.04141 70.9549 9.04414C69.6568 9.04414 69.4807 7.62738 69.4807 6.31172C69.4807 4.9455 69.8995 3.98915 70.981 3.98915Z" fill="white"/>
<path fill-rule="evenodd" clip-rule="evenodd" d="M80.4551 2.45675L81.3248 2.53827L79.1005 8.78435C79.0046 9.03927 78.9207 9.13244 78.6862 9.15961L78.2307 9.19972V10.2854H81.4181V9.14667L80.5909 9.10656L81.0052 7.92644H84.2338L84.5229 8.75718C84.6201 9.05221 84.4816 9.13244 84.1925 9.15961L83.6677 9.19972V10.2854H87.2307V9.14667L86.4435 9.10656H86.4302L83.6158 1.37109H80.4551V2.45675ZM83.9048 6.69327H81.3381L82.6154 2.87341H82.6567L83.9048 6.69327Z" fill="white"/>
<path d="M90.5561 9.16776L91.3846 9.20805V10.2855H87.9231V9.26264L88.4034 9.22235C88.6646 9.19505 88.8246 9.11447 88.8246 8.79083V2.15297C88.8246 1.91122 88.6842 1.84363 88.4609 1.83063L87.9526 1.80334V0.685547H90.5561V9.16776Z" fill="white"/>
<path fill-rule="evenodd" clip-rule="evenodd" d="M94.4766 0.972006C94.268 0.782367 93.9842 0.679509 93.6911 0.687307C93.3937 0.670858 93.1025 0.770283 92.8886 0.961283C92.6748 1.15228 92.558 1.41726 92.5668 1.69146C92.5668 2.25363 93.0146 2.66847 93.6729 2.66847C94.3312 2.66847 94.7959 2.25363 94.7959 1.69146C94.8006 1.42157 94.6852 1.16164 94.4766 0.972006ZM95.5384 9.21419L94.7089 9.17413V3.55889H92.1064V4.66385L92.6145 4.69099C92.8911 4.69099 92.9781 4.78404 92.9781 5.07869V8.79935C92.9781 9.12114 92.8195 9.20127 92.557 9.22841L92.0769 9.26847V10.2855H95.5384V9.21419Z" fill="white"/>
<path fill-rule="evenodd" clip-rule="evenodd" d="M102.665 8.93541C102.375 8.9217 102.283 8.83668 102.283 8.52406V3.23816C101.413 2.93758 100.495 2.77041 99.5671 2.74316C96.8214 2.74316 95.5385 4.33373 95.5385 6.83476C95.5385 8.86548 96.4399 10.286 98.5905 10.286C99.4257 10.2864 100.208 9.90379 100.681 9.26312L100.728 9.27683V10.0995H103.154V8.96283L102.665 8.93541ZM99.3374 3.9786C99.7391 3.97151 100.139 4.03429 100.516 4.16371L100.513 7.84395C100.513 8.45413 99.9325 9.07801 98.9868 9.07801C97.7038 9.07801 97.3989 7.95639 97.3989 6.77718C97.3989 5.24283 97.8879 3.9786 99.3374 3.9786Z" fill="white"/>
<path d="M103.846 2.96312H106.198V3.90996C106.725 3.16143 107.566 2.72673 108.455 2.74364C109.847 2.74364 110.668 3.55964 110.668 5.27606V9.07468L111.461 9.1183V10.2846H108.154V9.17739L108.613 9.13377C108.882 9.10423 109.017 9.017 109.017 8.65261V5.6517C109.017 4.68938 108.822 4.07738 107.876 4.07738C107.495 4.06012 107.125 4.2088 106.853 4.488C106.581 4.76719 106.432 5.15189 106.441 5.5504V9.07609L107.234 9.1197V10.286H103.921V9.17879L104.38 9.13518C104.648 9.10563 104.783 9.01841 104.783 8.65402V4.61763C104.783 4.29686 104.685 4.18008 104.435 4.16461L103.85 4.12099L103.846 2.96312Z" fill="white"/>
<path d="M117.108 8.11458L117.692 9.15934C117.083 9.63845 116.335 9.90913 115.559 9.93116L115.396 10.6076C116.116 10.6612 116.66 11.0269 116.66 11.7164C116.66 12.705 115.749 13.0289 115.001 13.0289C114.582 13.0267 114.166 12.9442 113.778 12.786L113.996 12.0821C114.29 12.1837 114.596 12.243 114.907 12.2584C115.382 12.2584 115.563 12.0285 115.563 11.7569C115.563 11.3377 115.086 11.2436 114.366 11.2436L114.791 9.89982C113.118 9.69739 112.154 8.47894 112.154 6.43643C112.154 3.69392 113.853 2.74319 115.388 2.74319C116.132 2.74056 116.863 2.93193 117.509 3.29822V5.05734L116.258 5.15137V4.49839C116.258 4.2372 116.217 4.11967 115.973 4.0387C115.804 3.98259 115.627 3.95522 115.449 3.95773C114.361 3.95773 113.803 4.76872 113.803 6.27057C113.803 7.74499 114.348 8.69181 115.557 8.69181C116.076 8.69964 116.551 8.52073 117.108 8.11458Z" fill="white"/>
<path fill-rule="evenodd" clip-rule="evenodd" d="M125.512 8.93541C125.222 8.9217 125.131 8.83668 125.131 8.52406V3.23816C124.26 2.93758 123.342 2.77041 122.414 2.74316C119.666 2.74316 118.385 4.33373 118.385 6.83476C118.385 8.86548 119.285 10.286 121.437 10.286C122.273 10.2864 123.054 9.90379 123.528 9.26312L123.573 9.27683V10.0995H126V8.96283L125.512 8.93541ZM122.184 3.97859C122.586 3.97124 122.986 4.03403 123.363 4.1637L123.36 7.84395C123.36 8.45412 122.779 9.07801 121.833 9.07801C120.552 9.07801 120.247 7.95638 120.247 6.77717C120.247 5.24282 120.734 3.97859 122.184 3.97859Z" fill="white"/>
<path fill-rule="evenodd" clip-rule="evenodd" d="M72.4965 18.3846C73.0086 18.4075 73.5191 18.4574 74.0256 18.5342C74.1093 18.5476 74.086 18.4594 73.9885 18.4487C73.4464 18.3234 72.8961 18.2341 72.3414 18.1815C71.7114 17.4894 70.3786 17.1313 69.2805 16.9042C69.0592 16.8585 68.8477 16.8172 68.653 16.7791C68.0846 16.6681 67.6594 16.585 67.551 16.5033C66.7206 15.8486 70.0409 13.6307 72.4855 13.4971C72.8671 13.4757 73.0236 13.62 73.0346 13.8164C73.0744 14.5059 71.6332 15.8901 70.6572 16.5581C70.5543 16.6169 70.6174 16.6637 70.6915 16.6637C71.2818 16.6316 73.6605 15.2274 73.6152 14.4578C73.563 13.5452 72.8109 12.976 71.8006 13.0321C70.2015 13.119 68.2826 13.9153 67.2367 14.7971C66.5751 15.353 66.1729 16.005 66.5751 16.4218C66.7181 16.5651 66.8991 16.6668 67.0981 16.7158C67.5017 16.8403 68.0801 16.9595 68.7019 17.0876C68.8476 17.1177 68.9958 17.1482 69.1446 17.1794C70.2084 17.3985 71.3586 17.6858 71.8185 18.1548C71.3672 18.1321 70.915 18.1321 70.4637 18.1548C66.5943 18.3659 61.5033 20.5558 61.6172 22.5506C61.6763 23.5954 63.6679 24.0444 64.5587 23.9963C65.8641 23.9268 68.0726 23.2213 69.8666 22.1898C71.4822 21.2666 72.7683 20.0654 72.7079 19.0192C72.6932 18.7938 72.6206 18.5755 72.4965 18.3846ZM71.0594 18.4086C71.3628 18.3926 71.6757 18.3766 71.9887 18.3766C72.0128 18.4394 72.0284 18.5049 72.0354 18.5716C72.0807 19.3586 70.7039 20.5905 68.8646 21.6166C67.1585 22.5706 65.0543 23.3322 63.3907 23.4231C63.0983 23.4391 62.2981 23.3483 62.2747 22.9274C62.1896 21.4242 66.8867 18.6371 71.0594 18.4086Z" fill="#88BA25"/>
<path fill-rule="evenodd" clip-rule="evenodd" d="M79.2673 18.3257C79.2718 18.2478 79.0957 18.0168 78.9241 17.8444C79.2255 17.7014 79.5314 17.4729 79.5239 17.3529C79.4896 16.8423 78.8212 16.4223 78.0319 16.4593C77.3127 16.4938 76.2488 17.0938 75.3253 17.8329C74.2405 18.6997 73.3498 19.7976 73.3856 20.344C73.4124 20.755 74.0973 21.2708 74.3882 21.2568C74.7777 21.2376 76.1131 20.2138 77.1739 19.2793L77.8095 18.7253C77.1038 19.5908 76.774 20.0529 76.7233 20.201C76.7137 20.2292 76.7092 20.2585 76.7099 20.2878C76.7009 20.6133 77.2948 21.1253 77.6753 21.1074C77.6923 21.1057 77.7089 21.1018 77.7245 21.0959C78.3437 20.9095 80.5535 18.6882 80.9862 18.101C81.0309 18.0372 80.9578 17.9746 80.8907 18.0372C79.6448 19.1989 78.0035 20.4653 77.7842 20.4755C77.7305 20.478 77.7305 20.4614 77.7305 20.4359C77.7305 20.284 78.202 19.518 79.0151 18.6244L79.2494 18.3691C79.2592 18.356 79.2654 18.3412 79.2673 18.3257ZM78.4257 17.5891C78.4246 17.5891 78.4245 17.5882 78.4257 17.5867V17.5891ZM78.4267 17.5857C78.4378 17.5755 78.5001 17.5494 78.6391 17.6223C78.698 17.6529 78.7513 17.6908 78.7973 17.7346C79.0375 17.4231 79.0957 17.1716 79.0494 17.0108C79.0087 16.888 78.8643 16.8129 78.7182 16.8385C78.6338 16.8426 78.5501 16.855 78.469 16.8755C77.7498 17.044 76.9038 17.6159 76.1578 18.2874C75.088 19.2474 74.2181 20.3108 74.2345 20.6006C74.2345 20.6261 74.248 20.6606 74.3181 20.6567C74.6986 20.6389 78.4347 18.3155 78.4705 17.6453C78.4676 17.6206 78.4513 17.5986 78.4267 17.5857Z" fill="#88BA25"/>
<path fill-rule="evenodd" clip-rule="evenodd" d="M81.6109 15.7204C81.5448 15.7569 81.5249 15.8555 81.576 15.8555C81.8928 15.8271 83.2085 15.3571 83.8732 14.9262C84.064 14.802 84.0715 14.4063 84.064 14.2617C84.0528 14.0335 83.9742 13.8106 83.7934 13.7215C83.7772 13.7107 83.751 13.712 83.7597 13.7215C83.8183 13.8174 83.7959 13.9173 83.6936 14.0524C83.2322 14.6872 82.2582 15.4503 81.6109 15.7204ZM82.4402 20.3842C82.4402 20.1938 83.3007 18.6081 83.9929 17.5776C84.1724 17.3034 84.3296 17.1224 84.3296 17.1224C84.338 17.1053 84.3427 17.0864 84.3433 17.067C84.3458 16.9401 84.2373 16.62 83.9031 16.3228C83.8046 16.2166 83.667 16.1645 83.5289 16.181C83.5795 16.2035 83.6125 16.2568 83.6125 16.3161C83.6412 16.5511 83.4803 16.832 83.3556 17.0211C82.7707 17.9098 80.062 20.5517 79.7776 20.5679C79.7277 20.5719 79.7065 20.5179 79.7065 20.4815C79.6966 20.3005 80.1231 19.4671 80.7292 18.5514C81.0247 18.107 81.5797 17.3466 81.5797 17.3466C81.5884 17.3297 81.5931 17.3106 81.5934 17.2912C81.5649 16.9607 81.4057 16.6598 81.1569 16.466C80.9462 16.2782 80.799 16.3512 80.7828 16.3606C80.8676 16.3741 80.9449 16.4241 80.9275 16.5524C80.8644 16.7663 80.7701 16.9679 80.6481 17.1494C80.5916 17.2398 80.5345 17.3308 80.4774 17.422C79.705 18.6546 78.9071 19.9278 78.9233 20.2397C78.9396 20.4923 79.1004 20.7543 79.3137 20.9866C79.4367 21.1453 79.6142 21.2428 79.8051 21.2567C79.8193 21.2553 79.8332 21.2512 79.8462 21.2446C80.3151 20.9434 81.6795 19.455 82.5899 18.265C82.5568 18.3207 82.5221 18.3791 82.4862 18.4394C82.1031 19.0824 81.5872 19.9484 81.6009 20.2127C81.6196 20.5557 82.0511 21.1284 82.3679 21.1095C82.6185 21.0946 83.5601 20.0303 84.0789 19.3726C84.5977 18.7148 84.9731 18.1894 85.1427 17.9193C85.1814 17.8544 85.1115 17.795 85.0567 17.8612C84.0066 19.0916 82.6597 20.4166 82.4839 20.4274C82.4502 20.4288 82.4402 20.4112 82.4402 20.3842Z" fill="#88BA25"/>
<path fill-rule="evenodd" clip-rule="evenodd" d="M87.9766 19.7424C87.939 19.7451 87.926 19.7277 87.926 19.7009C87.9029 19.3247 89.7368 16.7115 89.7961 16.6459L92.0609 13.299C92.0707 13.2821 92.0762 13.2633 92.0769 13.2441C92.0783 13.1182 91.6386 12.6015 91.4362 12.4596C91.1831 12.2829 91.1006 12.3592 91.1093 12.3592C91.2886 12.4301 91.2192 12.7313 91.0283 13.1102C90.7116 13.7381 89.88 14.9858 89.1207 16.0863C88.9052 15.7611 88.5202 15.5656 88.1083 15.5722C88.1062 15.5725 88.1034 15.5727 88.0992 15.5731C88.086 15.5743 88.0585 15.5767 87.9926 15.5869C86.6562 15.8279 84.5301 17.7905 83.943 18.9806C83.8246 19.1865 83.7649 19.4169 83.7694 19.65C83.8345 20.0691 84.468 20.5845 84.7384 20.5711C85.1159 20.551 86.2136 19.6407 87.226 18.6607L87.7033 18.1961C87.4229 18.6166 87.1834 19.0592 86.9874 19.5188C86.9675 19.5653 86.9572 19.6148 86.957 19.6648C86.957 19.8348 87.1667 20.0758 87.4097 20.2525C87.5295 20.3522 87.6827 20.4108 87.8436 20.4185C88.1343 20.4037 89.2262 19.3488 89.8279 18.6968C90.4295 18.0449 90.8634 17.5241 91.0616 17.2563C91.105 17.1907 91.024 17.1332 90.9603 17.1988C89.7426 18.4197 88.1806 19.733 87.9766 19.7424ZM84.6055 19.9289C84.5914 19.9174 84.5838 19.9004 84.585 19.883C84.5706 19.7852 84.6631 19.5643 85.0392 19.0195C85.6191 18.1894 87.4501 16.0166 88.6216 15.9564C88.7375 15.944 88.8441 16.0164 88.866 16.1224C88.8743 16.2678 88.5394 16.752 88.3175 17.0727C88.2656 17.1477 88.22 17.2137 88.1863 17.2644C87.2216 18.5054 84.9871 19.9258 84.6574 19.9419C84.6388 19.9452 84.6197 19.9405 84.6055 19.9289Z" fill="#88BA25"/>
<path fill-rule="evenodd" clip-rule="evenodd" d="M95.0022 16.0095C94.9766 15.5684 94.4506 15.0574 93.9004 15.0872C93.4471 15.1118 92.8672 15.4041 92.2551 15.8258C91.5704 16.3058 90.7928 17.069 90.3717 17.7521C90.1242 18.157 89.9762 18.5464 90.0031 18.8582C90.0354 19.2825 90.8143 19.9086 91.2462 19.8853C92.1475 19.84 94.3686 18.1117 95.5295 16.7806C95.5686 16.7443 95.469 16.6797 95.434 16.7081C94.6449 17.396 93.789 18.0094 92.878 18.5399C92.3453 18.8556 91.5314 19.3083 91.0551 19.3342C90.9099 19.342 90.8103 19.2941 90.8103 19.1647C90.8603 18.7792 91.0061 18.4109 91.2354 18.091C92.878 17.9927 95.0278 16.4507 95.0022 16.0095ZM91.4117 17.8539C91.4094 17.8545 91.4072 17.855 91.4049 17.8556H91.4103C91.4108 17.855 91.4112 17.8544 91.4117 17.8539ZM91.4117 17.8539C92.1236 17.6733 93.0212 17.0779 93.6193 16.6059C94.2488 16.1027 94.4789 15.7172 94.4735 15.6124C94.4735 15.5348 94.4143 15.5205 94.3511 15.5244C93.6317 15.5632 92.2633 16.7909 91.4117 17.8539Z" fill="#88BA25"/>
<path fill-rule="evenodd" clip-rule="evenodd" d="M2.97818 22.1913C3.04175 22.3508 3.15897 22.4862 3.34899 22.5557C3.79634 22.7194 4.32231 22.6073 4.65107 22.241C5.95419 20.787 7.04917 19.6431 7.94355 18.7094C10.1715 16.384 11.318 15.1862 11.0344 13.8741C10.7244 12.4396 9.01768 11.8875 5.50034 10.7501C4.55162 10.4439 3.46518 10.0928 2.41907 9.73976C1.45976 9.41661 0.312488 9.62707 0.0418181 10.6793C-0.0343934 10.9791 -0.000901357 11.3107 0.0975242 11.6199C0.323425 12.3734 0.749936 12.6676 1.55101 12.9843C6.67871 15.0102 9.17489 13.8586 3.31515 21.0936C3.02398 21.4531 2.77757 21.6882 2.97818 22.1913ZM4.15548 17.407C3.42747 17.4985 2.76228 16.9931 2.66928 16.2798C2.57663 15.5658 3.09193 14.9134 3.82028 14.8226C4.54828 14.7318 5.21348 15.2365 5.30612 15.9505C5.39912 16.6641 4.88383 17.3162 4.15548 17.407Z" fill="#E5A14B"/>
<path fill-rule="evenodd" clip-rule="evenodd" d="M25.2927 8.77357C25.2707 8.62567 25.1972 8.48734 25.0471 8.39259C24.6939 8.16974 24.2161 8.16842 23.8565 8.4223C22.4301 9.43121 21.2482 10.2113 20.2828 10.8478C17.8785 12.4348 16.6406 13.2516 16.6158 14.4312C16.5885 15.7204 17.9509 16.5091 20.7592 18.1347C21.5165 18.5732 22.3839 19.075 23.2161 19.5708C23.9786 20.0254 25.0139 20.0565 25.4637 19.2024C25.5921 18.9594 25.6316 18.6679 25.6096 18.3843C25.5694 17.6956 25.2605 17.3642 24.633 16.9449C20.6158 14.2592 18.2209 14.7874 24.7754 9.65472C25.1014 9.39952 25.3626 9.24303 25.2927 8.77357ZM23.2475 12.7172C23.8666 12.7764 24.3195 13.3236 24.2602 13.9402C24.2009 14.556 23.6517 15.0077 23.0329 14.9486C22.4146 14.8891 21.9613 14.3418 22.0206 13.726C22.08 13.1098 22.6295 12.6581 23.2475 12.7172Z" fill="#7AB742"/>
<path fill-rule="evenodd" clip-rule="evenodd" d="M6.38944 1.37566C6.17619 1.39107 5.97255 1.47369 5.82488 1.65794C5.47633 2.09235 5.4334 2.70674 5.76513 3.19065C7.08003 5.11121 8.09067 6.69802 8.91588 7.99402C10.9712 11.2224 12.0292 12.8846 13.7091 13.0194C15.5453 13.1666 16.7881 11.484 19.3475 8.0173C20.0381 7.08292 20.8286 6.01183 21.6075 4.98663C22.3221 4.04537 22.455 2.71756 21.2764 2.06513C20.9402 1.87859 20.5285 1.80351 20.1222 1.8058C19.1367 1.79826 18.637 2.16546 17.9852 2.93558C13.8084 7.86419 14.3551 10.9876 7.60132 2.11726C7.26581 1.6763 7.06458 1.32681 6.38944 1.37566ZM11.8455 4.48399C11.9837 3.62891 12.7901 3.04646 13.6468 3.18484C14.5039 3.32219 15.0865 4.12736 14.9486 4.98279C14.8107 5.83822 14.004 6.41998 13.1476 6.28297C12.2902 6.14459 11.7079 5.33942 11.8455 4.48399Z" fill="#933C85"/>
</svg>
